<svg width="100" height="100" viewBox="-20 0 150 100" fill="none" xmlns="http://www.w3.org/2000/svg">
<g clip-path="url(#clip0_119_58)">
<path d="M4.0183 55.3131C3.42482 67.7761 17.4699 71.9514 17.0183 84.4452C16.8537 88.9992 8.49961 76.1581 12.1453 79.8038C17.7161 85.3746 23.7811 90.4708 30.2113 95.1243C33.2817 97.3462 36.8904 97.2574 40.4799 97.8149C45.0087 98.5185 49.6105 98.3091 54.1804 98.3091C60.8214 98.3091 65.9001 97.3763 71.9994 94.4653C75.1895 92.9427 77.8163 92.1013 80.5656 89.7978C84.0584 86.8714 87.5746 84.2121 90.9165 81.0668C94.5532 77.644 99.2637 72.1187 99.7848 67.0642C100.492 60.2073 101.349 52.4061 99.6201 45.6485C98.9401 42.9905 98.0732 40.0379 96.9019 37.549C95.3564 34.2648 94.8697 30.7721 93.4699 27.4727C92.3186 24.7588 89.5708 23.244 87.5394 21.2127C84.7634 18.4367 81.9624 15.7545 79.1379 13.0308C69.9287 4.1505 54.4469 2.52322 42.4567 5.1235C31.5584 7.48699 17.9933 10.9211 12.2551 21.3774C6.35607 32.1268 4.0183 43.2322 4.0183 55.3131Z" stroke="#1B5E20" stroke-width="7" stroke-linecap="round"/>
<path d="M44.0491 34.062C47.7735 35.8262 51.1567 38.8957 52.9174 42.7107C53.6523 44.3029 54.6172 45.3183 55.9101 46.4172C56.7814 47.1578 58.1871 47.0395 58.8753 47.8998C59.3669 48.5143 61.0902 49.5276 61.8406 49.8492C62.6131 50.1803 65.4343 51.2893 65.7393 52.1281C66.5229 54.2828 61.557 55.8391 60.0834 56.5759C57.0854 58.0749 54.65 59.4903 51.9564 61.4356C49.7542 63.0261 46.84 63.9212 45.2572 66.2953C44.0791 68.0624 42.4557 69.2615 41.0839 70.6334" stroke="#1B5E20" stroke-width="7" stroke-linecap="round"/>
</g>
<defs>
<clipPath id="clip0_119_58">
<rect width="104" height="102" fill="white"/>
</clipPath>
</defs>
</svg>
