<svg width="104" height="150" viewBox="0 0 150 102" fill="none" xmlns="http://www.w3.org/2000/svg">
<g clip-path="url(#clip0_119_53)">
<path d="M4.0183 55.3131C3.42482 67.7761 17.4699 71.9514 17.0183 84.4452C16.8537 88.9992 8.49961 76.1581 12.1453 79.8038C17.7161 85.3746 23.7811 90.4708 30.2113 95.1243C33.2817 97.3462 36.8904 97.2574 40.4799 97.8149C45.0087 98.5185 49.6105 98.3091 54.1804 98.3091C60.8214 98.3091 65.9001 97.3763 71.9994 94.4653C75.1895 92.9427 77.8163 92.1013 80.5656 89.7978C84.0584 86.8714 87.5746 84.2121 90.9165 81.0668C94.5532 77.644 99.2637 72.1187 99.7848 67.0642C100.492 60.2073 101.349 52.4061 99.6201 45.6485C98.9401 42.9905 98.0732 40.0379 96.9019 37.549C95.3564 34.2648 94.8697 30.7721 93.4699 27.4727C92.3186 24.7588 89.5708 23.244 87.5394 21.2127C84.7634 18.4367 81.9624 15.7545 79.1379 13.0308C69.9287 4.1505 54.4469 2.52322 42.4567 5.1235C31.5584 7.48699 17.9933 10.9211 12.2551 21.3774C6.35607 32.1268 4.0183 43.2322 4.0183 55.3131Z" stroke="#1B5E20" stroke-width="7" stroke-linecap="round"/>
<path d="M14.8273 26.5335C18.1397 25.7974 19.6958 20.4281 23.2563 19.0929C25.8417 18.1233 29.1085 13.9795 26.853 19.7793C25.1222 24.2299 23.0435 27.6295 20.6205 31.6677C19.4161 33.6751 17.055 36.3487 16.8041 38.669C16.691 39.7157 14.8679 41.8951 17.518 40.3713C20.2129 38.8217 22.3466 36.2818 24.5467 34.1388C28.0131 30.7625 31.8298 27.6965 35.1447 24.1722C35.6757 23.6077 40.8115 18.0164 39.2082 22.47C38.5617 24.2658 36.8204 25.4986 35.6939 26.9727C33.7215 29.5538 31.6745 32.1136 29.7359 34.7153C27.7537 37.3756 26.2718 40.4578 24.4918 43.2267C22.6561 46.0823 30.7407 38.4363 31.0538 38.1199C36.4246 32.6907 41.3637 26.8 46.5664 21.207C50.061 17.4504 38.6557 27.7933 35.1996 31.5854C32.4196 34.6356 29.6826 37.8012 26.6883 40.6458C26.6234 40.7075 25.8505 41.2876 26.0293 40.8106C27.0338 38.132 29.0048 35.6811 30.3674 33.1778C31.8264 30.4974 35.3369 25.4339 35.1996 22.1405C35.102 19.7962 26.7657 25.5475 25.9744 26.1491C23.458 28.0624 19.8121 29.9415 18.0671 32.6836C17.4323 33.6811 21.2695 27.9733 21.856 27.1375C23.7096 24.4962 25.9772 22.2468 27.9513 19.7244C29.3995 17.8739 25.2435 23.6067 23.5309 25.2156C23.3267 25.4074 20.1 28.8361 20.3734 28.8947C21.3508 29.1041 23.8332 26.8428 24.4369 26.4236C29.447 22.9444 34.2121 19.1674 38.7689 15.1118C41.0115 13.1159 43.1132 10.9428 45.4407 9.04398C46.4095 8.25365 47.8822 7.47978 48.5158 6.3533C50.4091 2.98739 43.2316 11.9916 40.7458 14.947C37.4058 18.9178 34.0294 22.82 30.944 27.0002C30.4226 27.7066 26.6124 33.4857 27.512 33.3425C31.7497 32.6684 34.4956 29.1521 38.4395 27.7964C38.4605 27.7892 40.1215 27.0623 39.8672 27.412C38.1438 29.7817 35.9611 31.9427 34.1563 34.276C30.1128 39.5038 26.2379 45.2695 21.554 49.9534C17.7388 53.7687 23.8976 48.034 24.7115 47.1804C29.1766 42.4967 33.9984 37.9648 38.2198 33.068C41.936 28.7572 29.1025 39.9089 24.8762 43.7209C21.4249 46.8339 17.1238 50.3236 14.3331 54.0993C12.5726 56.4812 18.1264 49.535 19.7694 47.0705C20.11 46.5596 21.8041 44.7443 21.5266 44.0504C20.8635 42.3928 18.5531 46.0761 17.3258 47.3726C16.2957 48.4607 4.22803 60.8692 7.13962 61.8968C10.5651 63.1058 14.3051 58.6587 16.9689 57.2567C19.5636 55.891 16.7774 60.4383 16.4197 61.128C14.7638 64.3216 15.9594 63.5508 18.4515 61.4575C24.8452 56.0868 31.4433 50.9486 37.2314 44.929C37.775 44.3636 38.6499 43.262 37.1216 44.572C34.8325 46.5341 32.6578 48.9338 30.8616 51.3537C29.4752 53.2214 28.1838 55.0716 26.7432 56.8723C22.2819 62.449 36.786 46.6969 41.4047 41.2499C43.6026 38.6578 45.6843 35.9962 48.3236 33.8367C48.5582 33.6448 50.678 31.399 49.1198 32.5189C41.6925 37.8572 37.771 46.6681 31.5205 53.1109C31.3561 53.2804 28.9191 55.4968 29.7634 54.4837C33.0868 50.4955 36.5927 46.6589 40.1966 42.9247C42.7207 40.3094 45.1296 37.5665 47.802 35.0997C48.5671 34.3935 50.8289 32.9039 50.9319 31.6677C51.1256 29.3438 47.3422 34.6676 45.7702 36.3902C42.0538 40.4624 37.8684 44.3187 34.8153 48.9375C33.8693 50.3686 33.0278 51.8344 32.0148 53.2207C30.0738 55.8767 35.347 52.3409 35.5291 52.2048C38.9438 49.6546 42.0176 46.7106 45.5231 44.27C46.7906 43.3876 49.6248 40.6808 51.2889 40.4811C53.0216 40.2732 50.1357 43.8202 49.1473 45.2584C44.7579 51.646 39.5075 57.4811 34.7878 63.6265C32.2206 66.9692 29.6947 70.3168 27.5943 73.9774C27.5332 74.084 25.2898 77.8202 25.9744 77.6565C28.4087 77.0744 31.1286 74.4266 32.8933 72.8792C38.2898 68.1473 43.2844 62.7729 47.9667 57.3391C50.0647 54.9043 51.754 52.3117 53.5677 49.6789C55.516 46.8506 54.3828 48.7398 52.8813 50.2554C47.5821 55.6046 42.7811 61.6106 37.2863 66.729C36.342 67.6086 33.6462 71.6265 35.2271 68.4038C39.1141 60.4804 42.0699 51.9467 46.4566 44.27C46.5764 44.0604 48.6213 41.6577 46.9508 42.5128C41.5012 45.3025 37.1405 50.3738 32.6188 54.3738C28.606 57.9236 24.2847 61.1022 20.291 64.6698C19.2262 65.6211 15.3282 68.4647 15.2666 70.1885C15.2357 71.0531 18.1161 69.5877 18.122 69.5845C21.2268 67.888 24.0229 65.559 26.9629 63.599C30.5234 61.2253 33.8906 58.5139 37.451 56.1859C41.3403 53.643 31.798 63.5656 28.8299 67.1409C28.2674 67.8183 23.8021 73.2705 26.5236 72.028C35.6089 67.8804 43.5 58.7521 50.2455 51.5733C50.3384 51.4745 52.6499 48.3151 53.2657 48.9925C54.6926 50.562 48.9209 56.5029 48.1589 57.3665C44.3426 61.6917 40.1297 65.685 37.1765 70.6827C35.8578 72.9144 43.0741 68.6886 43.6012 68.3764C45.5785 67.2052 47.5369 66.124 49.4219 64.8071C51.5433 63.325 51.6531 63.7866 50.0808 65.9877C44.4478 73.8738 38.5611 81.5987 33.0581 89.5724C31.5532 91.7529 34.6545 89.4684 34.9251 89.2429C38.8903 85.9386 42.5325 82.2036 46.3742 78.7548C50.1944 75.3253 54.4305 70.3199 59.0864 67.992C60.5537 67.2583 57.5555 71.0326 56.2309 72.0006C53.8232 73.7601 59.3828 71.7219 59.965 71.5613C60.5217 71.4077 61.7782 70.9128 62.3536 71.122C62.3588 71.1239 57.3367 80.9544 57.0546 81.5004C54.8962 85.6785 52.5882 89.7877 49.6415 93.4712C49.5393 93.5989 44.7724 98.6401 47.6647 96.4364C49.8319 94.7852 51.4738 92.6434 53.3206 90.6707C54.8214 89.0676 56.7574 87.9722 58.2078 86.3326C58.5618 85.9324 60.8988 82.7114 60.0199 85.0971C58.867 88.2263 61.5503 85.3323 62.8204 84.0812C63.273 83.6353 64.4803 82.1573 64.0834 82.6535C62.5312 84.5938 61.0372 86.5908 59.4158 88.4742C58.9056 89.0669 52.715 95.9652 51.7007 95.0636C50.4883 93.9859 51.9039 90.6487 50.1906 89.7921C47.9736 88.6835 44.9274 89.2875 42.805 90.2863C41.9518 90.6878 41.1338 91.2961 40.3065 91.7689C39.5858 92.1807 43.573 92.2631 43.9856 92.2631C45.9413 92.2631 47.6909 92.0922 49.614 91.7964C51.5187 91.5033 48.8081 91.1946 48.3236 91.055C40.2865 88.7392 45.9362 79.8912 49.5591 75.5973C52.088 72.6002 47.9445 77.3991 47.3352 78.59C46.7469 79.74 48.3018 79.4056 49.0375 79.3039C52.3273 78.8489 55.1251 76.6098 57.9607 75.0482C59.7367 74.0701 61.5184 73.0106 63.4244 72.3026C63.9046 72.1242 65.7925 71.0455 64.303 71.8358C62.1754 72.9648 60.4154 75.1154 58.5922 76.6956C55.0291 79.7836 62.695 76.1444 63.5342 75.6797C66.1596 74.226 68.908 72.8336 71.826 72.0555C74.9778 71.215 70.9719 76.7621 70.3982 77.8213C69.1573 80.1122 75.0616 75.26 76.768 73.291C79.7142 69.8916 69.8588 79.1408 67.0486 82.6535C66.3488 83.5283 62.0023 88.5891 66.0602 86.3875C68.7478 84.9294 74.1506 82.1214 75.6972 79.249C75.9248 78.8264 68.9666 83.6179 70.1237 84.6303C70.8694 85.2828 80.7695 75.4468 81.7101 74.252C82.102 73.7542 86.1541 68.2746 84.4832 68.7059C77.6717 70.4637 71.0253 75.3683 64.9619 78.8097C64.4775 79.0846 61.8011 80.958 61.1181 80.0726C59.1661 77.5423 63.4031 68.1033 64.1383 65.9328C66.1684 59.9392 68.4791 54.034 70.7826 48.1413C71.7374 45.699 73.404 42.8061 73.9126 40.2065C74.2122 38.6753 69.8525 39.8501 69.5746 39.932C64.6858 41.3716 60.6766 45.1696 56.478 47.8942C54.1092 49.4314 51.6348 50.8164 49.312 52.4245C48.0639 53.2886 47.0295 54.4896 47.8843 52.0675C50.059 45.9059 54.8829 42.4841 58.9765 37.7355C59.8004 36.7799 60.2465 35.9898 58.4274 36.9667C54.7035 38.9666 51.5248 41.7865 47.9392 43.9955C46.2919 45.0103 43.0775 48.3568 44.4798 44.929C44.6369 44.5449 45.4126 43.3972 45.1387 42.9521C44.3057 41.5985 39.0358 42.3393 37.8354 42.4305C35.2306 42.6283 32.8019 43.3937 30.285 44.0229C29.9404 44.1091 26.7319 45.3058 26.4137 45.0937C24.1025 43.5529 38.0231 22.46 39.373 20.3559C40.6583 18.3522 45.3974 13.053 45.2485 10.2246C45.1968 9.24113 42.0656 9.7967 41.4871 9.97749C41.3448 10.0219 40.0259 10.2246 40.7458 10.2246C43.1619 10.2246 45.578 10.2246 47.9941 10.2246C49.176 10.2246 53.8202 9.31515 53.5128 11.4052C52.8811 15.7011 50.7612 20.283 48.4609 23.9251C48.1633 24.3963 45.4563 27.3275 45.9075 27.0826C48.7515 25.5387 50.5262 22.517 52.8539 20.3833C57.4866 16.1366 43.0258 28.219 38.11 32.1345C36.1728 33.6775 34.2484 35.2537 32.509 37.0216C30.3837 39.1818 32.1553 38.7379 34.074 37.6257C37.5033 35.6377 40.1846 32.7203 43.1619 30.1576C45.5982 28.0605 48.3275 26.4536 50.9045 24.5566C52.7208 23.2196 53.9517 21.8634 53.101 25.0234C52.5832 26.9463 52.0221 27.0277 54.3639 27.0277" stroke="#1B5E20" stroke-width="7" stroke-linecap="round"/>
<path d="M67.336 45.5207C64.572 48.124 62.0536 50.9745 59.249 53.544C55.3564 57.1104 51.9997 61.0045 48.476 64.9382C48.3563 65.0718 45.7976 67.8673 45.953 68.0726C46.4135 68.6809 54.2505 60.0801 54.6731 59.6354C60.5411 53.4603 66.1317 46.9799 72.3052 41.1247C73.4828 40.0079 70.4818 43.8341 69.5137 45.1462C65.9864 49.9263 62.9847 54.6813 60.4865 60.1282C59.7883 61.6505 59.1668 63.2251 58.3953 64.7115C58.0865 65.3062 56.7704 66.5815 57.4168 66.466C58.21 66.3242 59.5736 64.8701 60.0836 64.4454C62.7737 62.2051 65.4028 59.9013 67.9116 57.4472C71.1751 54.2549 74.0709 50.6219 77.4471 47.5611C77.9505 47.1047 79.7203 45.424 78.2146 47.0781C74.4846 51.1759 71.35 55.6449 68.1322 60.1775C65.7855 63.4832 63.3114 66.7328 61.4075 70.3396C59.9641 73.074 65.8649 69.3263 66.1273 69.147C72.4226 64.8439 78.3802 59.7737 84.2199 54.8451C85.4248 53.8281 86.5933 52.7687 87.7885 51.7402C88.2769 51.32 88.9809 50.9149 89.3714 50.38C91.0143 48.1293 85.9687 54.7895 84.2199 56.9544C81.3012 60.5673 78.1246 63.97 75.3559 67.7079C74.5795 68.7561 73.403 70.0719 72.9384 71.345C72.8567 71.5689 73.4128 71.2751 73.6099 71.1478C75.6833 69.8096 77.64 68.1899 79.4617 66.5152C81.929 64.247 84.037 61.6058 86.6757 59.5368C86.9126 59.3511 87.2061 59.0158 87.4911 58.906C88.1782 58.6412 86.8984 60.2987 86.4647 60.9069C84.0043 64.3568 81.3501 67.5127 79.4041 71.3253C78.3369 73.4162 77.3926 75.5718 76.3439 77.6729C75.46 79.444 78.5974 76.393 78.771 76.2338C81.8536 73.4073 85.0228 70.4931 87.8652 67.4122C88.6229 66.5909 90.9034 64.1902 89.9757 64.8002C87.7152 66.2867 85.8866 68.9366 84.1815 71C82.105 73.5128 80.0952 76.1276 78.2913 78.8557C78.0875 79.164 76.6195 80.9018 77.946 80.1469C81.4085 78.1765 84.2403 74.7387 87.3088 72.1926C88.7554 70.9924 90.2253 69.5621 91.808 68.5457C91.9666 68.4439 92.1425 68.378 91.9711 68.6443C91.1204 69.9655 90.1168 71.2211 89.1699 72.4686C87.4438 74.7428 85.6534 77.041 83.769 79.1809C83.06 79.9861 82.4504 80.7513 83.6251 79.3091C85.2151 77.357 86.7401 75.298 88.4025 73.4149C89.558 72.1058 90.7863 70.8999 91.856 69.5116C94.2387 66.4193 86.6776 75.3353 84.0856 78.2446C82.6368 79.8706 81.3261 81.6535 79.7111 83.1137C78.5644 84.1506 80.5198 82.3245 80.7664 81.9901C81.3094 81.2535 81.7967 80.4766 82.33 79.7329C82.3654 79.6835 83.3648 78.4016 83.2702 78.353C83.2028 78.3184 83.1176 78.3693 83.0495 78.4023C82.6156 78.6127 81.6774 79.2432 81.3803 79.4471C78.6109 81.3476 75.9132 83.3733 73.2454 85.4202C69.9911 87.917 66.6542 90.3659 63.518 93.0196C63.2427 93.2525 62.6656 94.0847 62.693 93.7194C62.7193 93.3682 63.0935 93.1473 63.3069 92.8717C63.6419 92.4392 65.4562 90.1347 65.6093 89.9345C67.7378 87.1504 69.6924 84.2552 71.6721 81.3593C74.571 77.1187 77.739 73.1143 80.7472 68.9597C82.2555 66.8765 83.6765 64.7447 84.9681 62.5135C85.3264 61.8946 86.5905 60.2813 86.4071 59.4382C86.0233 57.6741 77.8685 61.9546 77.0922 62.3361C73.1949 64.2512 69.7321 66.9367 66.204 69.4722C65.9002 69.6906 63.1863 72.1324 63.47 70.6747C63.7709 69.1287 64.5424 67.5646 65.1872 66.1604C67.2274 61.7173 69.7469 57.5566 72.1326 53.3074C75.3743 47.5337 78.1881 41.5442 81.1597 35.6247C81.2645 35.4159 81.9952 34.2271 81.8216 33.8703C81.5235 33.2578 78.2712 35.6624 78.157 35.743C71.7941 40.2364 65.7421 45.1787 59.2586 49.4831C59.1135 49.5794 58.7292 49.8103 58.779 49.4141C58.948 48.0683 60.0668 46.4464 60.5537 45.2349C62.5359 40.3029 64.0028 35.2345 66.3191 30.4402C66.8652 29.3099 68.5649 26.8905 66.3959 26.6651C61.81 26.1886 56.879 29.5238 53.215 31.9581C50.554 33.726 48.0232 35.6918 45.387 37.4975C45.2992 37.5576 45.0284 37.6709 45.08 37.5763C45.9749 35.9362 47.3057 34.4683 48.4952 33.062C52.9303 27.8187 57.2933 22.5594 61.2924 16.9564C62.6374 15.0719 57.8628 20.0274 56.1792 21.5988C53.3206 24.2671 50.9286 27.2268 48.4568 30.2628C47.8631 30.992 47.2038 31.6472 46.5861 32.3524C46.5586 32.3838 45.4702 33.6619 46.212 32.993C50.3586 29.2543 53.9261 24.9121 57.6854 20.7807C60.006 18.2304 62.5892 15.8566 64.7843 13.1912C64.9478 12.9926 65.3681 12.3835 65.3215 12.6392C65.1817 13.4054 63.3771 14.7655 62.9232 15.2611C60.4512 17.9597 57.8603 20.4266 54.9705 22.6535C54.0229 23.3837 52.628 24.609 51.4882 24.9994C51.0445 25.1513 51.4828 24.0316 51.5746 23.5603C51.8346 22.2244 52.2945 20.939 52.6778 19.6374C53.1792 17.9342 53.6385 16.2946 54.6156 14.8274C55.3141 13.7784 53.2684 14.5109 53.8865 13.5066C54.3983 12.675 55.278 12.09 56.1025 11.6338C56.8942 11.1958 56.7589 11.4424 56.2656 12.2252C55.1514 13.9931 53.927 15.8743 52.6106 17.4887C52.4865 17.6409 52.0483 18.0254 52.1597 17.8632C52.5013 17.3661 53.2612 17.0284 53.733 16.7001C54.7388 16.0003 55.7674 15.3493 56.774 14.6598C56.888 14.5818 58.0196 13.9278 57.8197 14.3148C57.0412 15.8222 56.2048 17.2345 55.6228 18.8489C55.2016 20.0174 55.1326 20.3685 56.515 19.7557C58.5867 18.8373 60.6095 17.7861 62.6738 16.848C63.2924 16.5669 64.5047 15.4525 64.036 16.8973C63.3291 19.0763 62.0241 21.096 60.9566 23.1069C60.4713 24.0211 59.9421 24.724 61.5993 24.3488C64.7879 23.627 67.5811 21.3979 70.118 19.4107C70.8476 18.8392 71.5771 18.2731 72.3628 17.7843C72.4966 17.7011 73.6054 16.9212 73.0919 17.6858C72.5044 18.5606 71.7446 19.2935 70.991 20.0119C69.2507 21.671 67.5802 23.3874 65.9354 25.1472C64.1428 27.0653 62.6748 29.3994 60.7743 31.1893C60.5606 31.3906 59.832 31.7807 60.122 31.7807C60.8342 31.7807 62.3149 30.4584 62.7985 30.0952C65.2861 28.2266 67.4168 25.895 69.7343 23.8166C69.9999 23.5784 71.6681 21.7331 70.5209 22.9886C69.0006 24.6526 67.2884 26.1204 65.7244 27.7395C65.6096 27.8583 63.5135 30.4352 63.2589 30.0755C63.0736 29.8136 63.8218 28.5529 63.8633 28.4689C64.8345 26.5022 65.7982 24.5625 66.6069 22.5155C67.2702 20.8367 67.8539 19.1256 68.5927 17.4788C68.9709 16.6358 69.8547 15.5596 70.0029 14.6204C70.1164 13.9013 69.0359 14.4282 68.8517 14.512C67.0559 15.3288 65.368 16.4981 63.6715 17.5084C62.4192 18.2541 58.8792 20.822 59.9781 19.8542C62.5479 17.591 65.0692 15.2967 67.7389 13.1518C68.4008 12.62 69.0619 12.083 69.7343 11.5649C69.7717 11.536 70.5837 10.87 70.6456 11.0227C70.7883 11.3744 69.9982 12.6438 69.9262 12.7772C68.7571 14.9411 67.4284 17.0138 66.204 19.1446C64.6601 21.8316 63.3873 24.5587 62.2709 27.4536C61.3 29.9713 66.2187 27.6955 66.8947 27.4241C70.3038 26.0552 73.4422 24.551 76.4111 22.3479C76.8371 22.0318 78.7487 20.3778 77.6582 21.865C74.1653 26.6283 70.4777 31.263 66.818 35.8909C65.6718 37.3403 64.5149 38.7798 63.4028 40.2573C63.3471 40.3315 61.7902 42.1161 62.0023 42.4258C62.7342 43.4945 75.8482 30.6825 77.5623 29.0997C77.6685 29.0016 77.7796 28.9091 77.8884 28.8139C77.9523 28.7579 78.0299 28.7153 78.0803 28.6463C78.1213 28.59 77.9694 28.729 77.9172 28.7744C76.3678 30.1215 74.9945 31.6679 73.514 33.0916C70.9446 35.5623 68.162 37.7914 65.5517 40.2179C65.4075 40.352 64.9763 40.7549 65.1296 40.6319C66.9795 39.1469 68.6993 37.4327 70.3962 35.7726C74.4282 31.8281 78.1343 27.5703 82.3972 23.8757C83.4581 22.9562 86.504 20.1005 85.6876 21.2539C85.0812 22.1106 84.3361 22.8819 83.6827 23.6983C81.8506 25.987 80.1886 28.3989 78.5216 30.8147C77.3849 32.4621 76.2841 34.1717 75.0489 35.743C74.3612 36.6178 75.1574 36.684 75.9314 36.6498C79.555 36.4899 82.9391 34.3741 85.8411 32.3129C87.7618 30.9488 89.7398 29.0079 91.9519 28.1338C92.2091 28.0321 91.8001 28.6884 91.6449 28.9223C90.049 31.3273 88.1726 33.5196 86.5798 35.9303C84.298 39.3835 82.0111 43.1693 80.3634 46.9992C80.2079 47.3609 79.53 47.8968 79.8742 48.0736C80.108 48.1937 82.8507 46.1072 82.8864 46.0826C85.6527 44.1762 88.179 41.9506 90.9158 40.0208C91.2646 39.7749 91.6088 39.4818 91.9807 39.2717C92.6533 38.8916 91.0628 40.5379 90.5609 41.1346C86.075 46.4674 81.5972 51.8656 77.5719 57.5753C76.9139 58.5087 76.1776 59.446 75.6053 60.4436C74.9926 61.5114 76.6291 60.1769 76.6413 60.1676C80.5786 57.1775 84.211 53.777 87.7693 50.3308C88.5888 49.5371 89.3965 48.7291 90.2252 47.9455C90.4558 47.7273 91.2061 46.7986 91.5682 46.7824C92.0024 46.763 91.2927 47.6354 91.0789 48.0243C90.3381 49.3723 89.4533 50.6068 88.5464 51.8388C88.4195 52.0111 86.6335 54.2058 87.328 54.3128C88.2071 54.4483 89.298 54.0324 90.0908 53.7608C92.0825 53.0787 93.9769 52.1418 95.933 51.3657C96.3137 51.2147 98.5763 49.9547 97.8613 51.0996C95.5101 54.8643 92.5075 58.3736 89.8031 61.8728C88.5489 63.4954 86.4694 65.4929 85.8891 67.5798C85.5992 68.6221 88.4015 67.0681 88.6998 66.9292C89.5031 66.5553 91.7818 65.2957 91.1653 65.9436C90.0113 67.1562 88.5838 68.0835 87.4336 69.3145C87.0226 69.7544 88.4917 68.3942 88.6711 68.1712C89.6476 66.9565 85.5624 68.6027 84.2199 69.3638C80.9171 71.2361 77.8645 73.6096 74.7227 75.741C67.2008 80.844 59.7552 85.9793 52.4667 91.4327C48.4701 94.4229 27.8255 80.3173 23.697 83.1137C21.3888 84.6771 42.8265 80.3286 40.3506 81.6155C39.7974 81.9031 49.8322 75.0467 40.1918 92.8717C49.3417 77.2293 34.9785 99.0125 36.4271 96.6172C39.8903 90.8906 43.8194 85.5136 47.1138 79.6738C47.3365 79.2789 48.5244 77.6578 48.3225 76.9632C48.1052 76.2157 46.1701 76.4137 45.7132 76.431C42.8403 76.5398 40.0427 77.4183 37.3 78.2347C36.5426 78.4602 35.7912 78.6956 35.0648 79.0134C34.6109 79.2119 34.0949 79.6371 34.3166 78.7374C35.1347 75.4171 36.7884 72.0603 38.2018 68.9597C38.3926 68.541 39.0221 67.8344 38.6143 67.6389C37.7567 67.2277 35.4183 69.3473 34.9113 69.7285C33.4151 70.8535 31.9999 72.0867 30.5081 73.2177C29.1806 74.2242 27.737 75.0564 26.4214 76.0761C26.2672 76.1957 26.1188 76.3233 25.9706 76.4507C25.9237 76.4909 25.7832 76.61 25.8363 76.5788C25.9334 76.5218 26.0177 76.4439 26.1049 76.3718C28.2325 74.6123 30.1762 72.6499 32.1677 70.7339C33.8091 69.1547 35.4819 67.6441 37.2521 66.2196C38.0682 65.5628 39.3461 64.1311 40.3698 63.7653C40.8873 63.5803 39.9766 64.8268 39.6695 65.293C38.2162 67.4995 36.499 69.5054 34.8346 71.5421C33.6127 73.0374 32.4237 74.5623 31.1892 76.0466C30.645 76.7009 28.742 78.089 29.5776 78.0277C30.544 77.9568 32.0192 76.8794 32.7817 76.4507C35.3941 74.9818 37.924 73.3741 40.4753 71.7984C41.5657 71.1249 43.0268 69.922 44.3414 69.7088C45.8916 69.4573 44.0018 72.3155 43.8521 72.5278C41.4064 75.9966 38.631 79.2242 36.3311 82.7687C35.327 84.3162 33.7489 85.1676 32.4363 86.3664C32.1744 86.6056 32.038 86.8765 31.8607 87.1746C31.5782 87.6497 32.396 86.206 32.6857 85.7356C34.756 82.3742 36.6654 78.9136 38.691 75.5242C38.9099 75.1578 39.5071 74.3931 39.4393 73.888C39.33 73.0742 36.1004 74.4292 36.0433 74.4498C32.631 75.6816 29.5469 77.5112 26.3927 79.2894C26.1457 79.4286 25.5712 79.8697 25.6732 79.2302C26.0459 76.894 27.2001 74.5004 27.9755 72.2912C28.7765 70.0093 29.5841 67.7309 30.441 65.4705C30.9824 64.0421 31.8189 62.4796 32.0334 60.9364C32.3203 58.873 26.6668 60.8003 26.0377 61.0251C24.338 61.6326 22.6863 62.3693 20.9822 62.9669C19.9658 63.3233 18.4984 64.068 17.3752 63.9525C16.7223 63.8855 16.6968 63.3399 16.8284 62.7993C17.6191 59.5496 19.3823 56.3687 20.6752 53.3173C21.7983 50.6665 22.9079 48.0102 23.9944 45.3433C24.4704 44.1749 24.9686 43.0155 25.4142 41.8344C25.4396 41.7671 25.9164 40.6347 25.7595 40.3165C25.4599 39.7087 23.6764 40.172 23.3996 40.2376C20.8738 40.8365 18.5261 42.1351 16.2432 43.3523C14.9033 44.0667 13.5843 44.8146 12.2716 45.5799C12.2507 45.5921 10.4179 46.8308 10.7751 46.0333C11.4014 44.6349 12.6502 43.3259 13.6051 42.1991C16.4578 38.8325 19.4584 35.5962 22.4211 32.3327C23.8189 30.7929 25.1893 29.2237 26.6037 27.7001C27.15 27.1117 29.0195 25.6647 28.2921 25.985C27.7783 26.2113 27.0733 27.0471 26.7092 27.3847C25.6981 28.3219 24.6788 29.2534 23.697 30.2233C23.2544 30.6607 22.4631 31.2188 22.1333 31.761C21.6269 32.5935 23.0393 30.0294 23.5627 29.2081C24.1485 28.2888 25.6315 26.6977 25.6828 25.5119C25.7408 24.1713 19.3252 27.4511 18.9964 27.6409C16.1963 29.2572 13.4524 31.0006 10.6792 32.6678C10.469 32.7941 9.82349 33.1439 10.046 33.0423C11.4755 32.3896 12.8225 31.4953 14.1231 30.6176C19.0272 27.3082 23.6437 23.631 28.177 19.8148C28.6454 19.4205 29.6345 18.2888 30.2971 18.1096C30.5596 18.0386 30.0389 18.6048 29.8654 18.8193C29.5065 19.263 28.2563 20.717 27.9851 21.037C25.7584 23.6652 23.6074 26.3818 21.5577 29.1588C21.1402 29.7246 20.6368 30.4303 20.4641 31.14C20.3908 31.4414 20.9756 31.1023 21.0013 31.0907C22.5463 30.3962 24.0213 29.5181 25.4525 28.6069C26.2504 28.0989 27.0246 27.5536 27.8124 27.0298C28.2726 26.7239 28.9208 26.3253 28.1578 27.2959C26.8592 28.9479 25.3401 30.4248 23.9752 32.0172C21.5144 34.8885 19.2337 37.9103 16.9722 40.9473C16.1693 42.0256 15.3319 43.0983 14.6123 44.2394C14.4963 44.4235 14.2427 44.9752 14.4301 44.8702C15.2372 44.4179 15.871 43.6965 16.5885 43.1059C21.2055 39.3057 26.1136 35.8459 30.9398 32.3327C31.1772 32.1599 34.5783 29.1584 34.7291 30.2431C34.898 31.4578 33.775 33.1115 33.223 34.1265C32.6915 35.1037 32.8539 35.1443 34.0288 34.9151C35.3778 34.6519 37.0011 33.5996 38.384 33.6731C40.0195 33.7601 35.4966 41.4748 35.3718 41.6865C34.1966 43.6797 32.8233 45.6201 31.8416 47.7286C31.1098 49.3003 29.908 52.0892 30.8439 53.8397C31.6144 55.281 33.7106 55.7114 35.084 55.9884C37.8286 56.5421 40.6384 56.5321 43.4204 56.4221C46.1727 56.3134 50.0564 55.8126 49.7039 59.8522C49.2564 64.981 45.9776 69.774 43.3725 73.9865C42.4312 75.5086 41.411 76.9574 40.4178 78.4417C39.7385 79.4569 39.2639 80.6405 38.5375 81.6155C37.7874 82.6225 38.0348 80.89 38.0483 80.5017C38.1088 78.7594 28.4742 81.0089 27.0354 81.2508C26.0397 81.4182 25.3245 81.9 25.4142 80.6101C25.5661 78.425 26.3141 76.36 27.1409 74.3611C27.5428 73.3895 25.7756 74.7613 25.5101 74.8933C24.2622 75.5137 25.9004 72.1164 26.0185 71.7589C26.1929 71.2314 26.9162 69.8386 25.9706 70.7536C23.5988 73.0485 21.477 75.6566 19.2362 78.0869C18.772 78.5903 18.3002 79.0894 17.8932 79.6442C17.8642 79.6838 17.3315 80.4623 17.7397 79.861C19.4378 77.3602 21.3915 75.0187 23.2653 72.6559C26.6556 68.3808 21.5361 74.1916 21.6921 74.3118C22.0762 74.6078 23.8517 73.711 23.9368 73.6711C29.4544 71.0873 34.6652 67.6191 39.7271 64.2285C45.0127 60.6881 50.1206 56.8818 55.383 53.3074C57.0312 52.188 58.2172 51.4002 59.9014 50.518C60.0114 50.4604 61.241 49.7392 61.6953 49.8872C62.421 50.1236 60.9716 52.1758 60.9662 52.1838C59.1167 54.9141 56.5776 57.174 54.2894 59.4974C50.6119 63.2314 46.9305 66.9808 43.689 71.1281C43.4857 71.3883 42.9602 72.1102 43.2765 72.0349C45.5682 71.4894 48.0179 68.6738 49.5504 67.1658C54.2569 62.5345 58.685 57.5893 63.2206 52.785C69.5781 46.0509 75.9723 39.3537 82.4931 32.7861C85.3739 29.8845 93.8894 21.0536 91.1461 24.0926C89.3737 26.0559 87.6877 28.0832 85.9562 30.0854C81.8998 34.7759 77.4019 39.003 73.2741 43.6184C71.127 46.0192 69.2033 48.6061 67.1633 51.0996C65.9868 52.5377 64.6856 53.8827 63.5755 55.3773C63.0661 56.0632 62.2112 57.1547 63.5563 57.2205C63.7395 57.2295 65.1638 57.0675 65.2255 57.3486C65.4845 58.5271 63.9473 60.5655 63.3741 61.449C62.9598 62.0874 62.0068 62.9658 61.9831 63.7948C61.9677 64.3327 61.9769 64.8378 61.8584 65.3719C61.2251 68.2248 59.0757 70.9988 57.3976 73.2769C56.1837 74.9248 54.7787 76.4613 53.4644 78.0277C53.3424 78.1731 52.9553 78.5734 53.119 78.4811C54.7163 77.5812 56.1735 75.3774 57.34 74.026C61.8004 68.8585 65.8379 63.2642 70.5977 58.3737C71.0104 57.9496 72.1794 56.8177 72.075 57.4078C71.987 57.9054 70.8087 59.6171 70.7703 59.6748C69.8182 61.1083 68.8229 62.5112 67.854 63.9328C65.6302 67.1959 63.0555 70.3869 61.1581 73.8683C59.8701 76.2314 65.6279 74.4596 66.2616 74.2625C71.6495 72.5869 76.6949 69.3665 81.7353 66.8307C82.057 66.6688 83.7392 65.5011 84.1431 66.4167C85.1272 68.6475 83.0858 72.5417 82.2629 74.3808C79.9285 79.5978 76.8659 84.0475 73.6579 88.6827C73.6229 88.7331 72.5932 90.0607 72.7849 90.309C73.0393 90.6386 73.5356 89.9553 73.8593 89.6979C75.1904 88.6398 76.4686 87.5128 77.7925 86.4452C82.0731 82.9935 86.5539 79.861 90.9446 76.5689C91.5275 76.132 92.0896 75.6538 92.681 75.2285C93.2343 74.8305 91.6058 76.0685 91.0693 76.4901C88.023 78.8845 85.2457 81.6247 82.1957 84.0008C82.0765 84.0937 79.5722 86.0002 79.4617 85.2625C79.1534 83.2036 80.8268 80.9276 81.7065 79.2302C81.806 79.0381 82.9758 77.2192 82.7234 77.1406C82.4229 77.0471 81.5441 77.1002 81.4283 76.7168C81.2196 76.0261 81.3381 74.9789 81.3995 74.3019C81.613 71.9477 82.3522 69.8167 83.2989 67.6783C83.3949 67.4616 85.3786 63.3035 84.6803 63.3513C84.0175 63.3967 83.1482 64.092 82.6466 64.4257C81.0501 65.4875 79.5271 66.6607 77.9268 67.7178C77.3786 68.0799 76.7009 68.6465 76.0561 68.8414C75.0664 69.1405 76.5972 66.775 77.0922 65.845C78.3595 63.4641 79.7339 61.144 81.1693 58.8665C82.4885 56.7735 84.0407 54.775 85.1984 52.5781C85.3105 52.3652 85.9804 51.2442 85.1792 51.3558C83.8119 51.5463 82.4242 52.5655 81.2172 53.199C80.9016 53.3647 77.905 55.2073 77.8884 54.4508C77.8472 52.5655 79.8018 50.5864 80.9486 49.2958C81.3955 48.793 82.0006 48.0072 82.7042 47.8666C83.1961 47.7683 84.0704 48.4273 84.6036 48.5369" stroke="#1B5E20" stroke-width="7" stroke-linecap="round"/>
<path d="M44.0491 34.062C47.7735 35.8262 51.1567 38.8957 52.9174 42.7107C53.6523 44.3029 54.6172 45.3183 55.9101 46.4172C56.7814 47.1578 58.1871 47.0395 58.8753 47.8998C59.3669 48.5143 61.0902 49.5276 61.8406 49.8492C62.6131 50.1803 65.4343 51.2893 65.7393 52.1281C66.5229 54.2828 61.557 55.8391 60.0834 56.5759C57.0854 58.0749 54.65 59.4903 51.9564 61.4356C49.7542 63.0261 46.84 63.9212 45.2572 66.2953C44.0791 68.0624 42.4557 69.2615 41.0839 70.6334" stroke="white" stroke-width="7" stroke-linecap="round"/>
</g>
<defs>
<clipPath id="clip0_119_53">
<rect width="104" height="102" fill="white"/>
</clipPath>
</defs>
</svg>
